<svg xmlns="http://www.w3.org/2000/svg" xmlns:xlink="http://www.w3.org/1999/xlink" viewBox="0 0 430.48 469.5"><defs><style>.cls-1{fill:none;}.cls-2{clip-path:url(#clip-path);}.cls-3{font-size:58.01px;font-family:MinionPro-Regular, Minion Pro;}.cls-3,.cls-4{fill:#231f20;}.cls-5{fill:#58b7dd;}.cls-6{fill:#fff;}</style><clipPath id="clip-path" transform="translate(0)"><rect class="cls-1" width="430.48" height="469.5"/></clipPath></defs><title>Asset 1</title><g id="Layer_2" data-name="Layer 2"><g id="Layer_1-2" data-name="Layer 1"><g class="cls-2"><text class="cls-3" transform="translate(187.08 51.37)"> </text><path class="cls-4" d="M429.56,230.14a8.67,8.67,0,0,0-1.52-2.46l-15.72-17.95-.21-.23a3.6,3.6,0,0,1-.36-.84l9.51-21.09a12.56,12.56,0,0,0,1-3.32l7.28-43.51a12.57,12.57,0,0,0-.85-7.07l-32.27-75L395,34.48a12.56,12.56,0,0,0-2.61-7L375.63,5.82A12.47,12.47,0,0,0,370,1.72l-2.73-1h0a12.38,12.38,0,0,0-13.43,3.39l-5.39,6a12.52,12.52,0,0,0-3,10.6l3.35,19.09a12.7,12.7,0,0,0,1.3,3.78,12.43,12.43,0,0,0-1.65,1.17l-8.35,7c-33-27.66-76.78-44.51-124.82-44.51-77.35,0-143.65,43.69-171.64,105.83a63.48,63.48,0,0,0-18,.54,42.14,42.14,0,0,0-13.4,4.74,23.23,23.23,0,0,0-8.89,8.33A19.28,19.28,0,0,0,.47,136.77a17.66,17.66,0,0,0,2.7,9.29,14.67,14.67,0,0,0,6.64,5.81,15.75,15.75,0,0,0,4.45,2.79,8.69,8.69,0,0,0,12-7.83h0c-.13,4.69-.3,9.71-.53,15q-.37,8.43-.7,17.22c-.23,5.91-.46,11.49-.69,16.6s-.47,10-.69,14.36-.39,7.67-.53,10.21L23,221.71q-.89-.07-1.73-.18a24,24,0,0,1-5-1.12,7.5,7.5,0,0,1-1-.41,8.69,8.69,0,0,0-13,.71C0,223.62-.58,227.39.62,231.9A29,29,0,0,0,4,239.59a35.71,35.71,0,0,0,5.32,6.69,17.35,17.35,0,0,0,9.48,5.1l.11,0q1.16.17,2.35.28a8.68,8.68,0,0,0,2.07.58,56.07,56.07,0,0,0,8.29.63,46.54,46.54,0,0,0,9.6-1l.15,0q1.94,5.91,4.16,11.7C34,273.82,30.77,289.28,36.61,308.74l11.08,36.91c6.54,21.79,19.77,33.18,38,33.18a55.27,55.27,0,0,0,15.85-2.52,28.8,28.8,0,0,0,10.32-5.57c35.19,41.19,74.66,74.61,103.39,98.76C259.07,429,327.36,374.2,367.82,301.32l3.25,10.94a12.43,12.43,0,0,0,10.76,8.9l2.83.27a12.48,12.48,0,0,0,8.1,3.83l1.48.11c.31,0,.61,0,.92,0a12.49,12.49,0,0,0,12-9.26l9.25-34.27L424.27,268a12.56,12.56,0,0,0,1.51-4.44l4.55-26.71c0-.15,0-.29.06-.44a12.66,12.66,0,0,0-.84-6.23" transform="translate(0)"/><path class="cls-5" d="M75.13,277.43c7.15-2.15,13.31.69,17.3,14l19.75-5.93c-7.76-23.25-22.11-31.57-42.28-25.52C50.72,265.73,40,278.92,47.66,304.39L58.74,341.3c7.64,25.47,23.84,30.59,43,24.83,7.44-2.23,12-8,15.45-15.56l5.58,7.68,10.3-3.09L117.2,302.23,83.58,312.32l4.89,16.31,13.88-4.17,1.89,6.29c2.66,8.87-.28,15.68-7.73,17.92C88.65,351,82.69,349.4,79.26,338L66.63,295.89c-3.44-11.44.63-16.1,8.5-18.46" transform="translate(0)"/><path class="cls-5" d="M142.87,238.07C123.7,243.82,113,257,120.64,282.48l11.08,36.91c7.65,25.47,23.84,30.59,43,24.83s29.87-18.95,22.23-44.41L185.88,262.9c-7.65-25.47-23.84-30.59-43-24.83M178,308.32c3.44,11.45-.63,16.1-8.5,18.46s-13.82.72-17.26-10.73L139.61,274c-3.44-11.44.63-16.1,8.49-18.46s13.82-.72,17.26,10.73Z" transform="translate(0)"/><path class="cls-5" d="M215.85,216.16c-19.17,5.76-29.87,18.95-22.23,44.42l11.08,36.91c7.65,25.47,23.84,30.59,43,24.83s29.87-18.95,22.23-44.42L258.87,241c-7.64-25.47-23.84-30.59-43-24.83M251,286.41c3.43,11.45-.63,16.1-8.5,18.46s-13.82.72-17.26-10.73L212.6,252.07c-3.43-11.44.63-16.1,8.5-18.46s13.82-.72,17.26,10.73Z" transform="translate(0)"/><path class="cls-5" d="M283.25,197.49l-27.47,8.25,31,103.3,27.47-8.25c22.61-6.78,32.28-20.29,25.32-46.59L330,222.44c-8.67-25.78-24.18-31.73-46.79-24.95m35.89,60.35c4.64,15.45-.11,22.49-11,25.76l-6.87,2.06-20.53-68.39,6.87-2.06c12.3-3.69,19,.85,23.35,15.45Z" transform="translate(0)"/><path class="cls-6" d="M113.39,174.37a4.67,4.67,0,0,1,1.53-2.63,2.79,2.79,0,0,1,2.14-.79,2.43,2.43,0,0,1,1.71,1.36,5.75,5.75,0,0,1,.21,3.8q-.53,3.67-2,10a114.77,114.77,0,0,1-3.78,12.85,74.49,74.49,0,0,1-5.69,12.33,25.18,25.18,0,0,1-7.47,8.54,27.33,27.33,0,0,1-9.82,4.65,30.29,30.29,0,0,1-12.15.76,19.18,19.18,0,0,1-10.18-4.9,22.67,22.67,0,0,1-6.2-9.72,29.64,29.64,0,0,1-1.16-12.65,33.74,33.74,0,0,1,4.78-13.65,4.6,4.6,0,0,1,2.25-2,3.73,3.73,0,0,1,2.22-.19,19.05,19.05,0,0,1,3.73,2,18.69,18.69,0,0,1,3.59,2.75,2.29,2.29,0,0,0-2.06.15,3.58,3.58,0,0,0-1.53,1.4,3.27,3.27,0,0,1,1.34-.82,2,2,0,0,1,1.78.11,7.74,7.74,0,0,0-1.89,1.68,8,8,0,0,0-1.33,2.4,4.05,4.05,0,0,1,1.31-1.25l1.45-.77a38.23,38.23,0,0,0-2.89,4.33,21.76,21.76,0,0,0-2.24,5.38,20.27,20.27,0,0,0-.66,6,12.36,12.36,0,0,0,1.8,6,11.65,11.65,0,0,0,4.36,4.19,13.25,13.25,0,0,0,5.75,1.69,14.3,14.3,0,0,0,6-.92,11.75,11.75,0,0,0,5-3.52,12.06,12.06,0,0,0,2.58-6,17.72,17.72,0,0,0-1.21-8.52,21.89,21.89,0,0,0-5.42-7.93,26.23,26.23,0,0,0-10.64-5.91,9.41,9.41,0,0,1-2.05-.72,10.29,10.29,0,0,0-2.05-.73q-6.65-3-8.86-7a8.64,8.64,0,0,1-.51-7.93q1.69-3.91,7.11-7.38a41.25,41.25,0,0,1,14-5.24,41.88,41.88,0,0,1,7.92-.86,15.48,15.48,0,0,1,6.6,1.27,9.65,9.65,0,0,1,4.44,4.18,15.07,15.07,0,0,1,1.45,7.83,10.25,10.25,0,0,0-1-3.57,10.44,10.44,0,0,1-.36,4.58,9.48,9.48,0,0,1-2.39,3.93,12,12,0,0,1-4.23,2.7,12.55,12.55,0,0,1-5.77.68q2.54-.9,2.72-2.45c.11-1-.54-2-2-2.86a2.7,2.7,0,0,1,1.25,1.92,2.78,2.78,0,0,1-.46,2.06,3.6,3.6,0,0,0-.5-2.66,5.92,5.92,0,0,0-2-1.71,9.43,9.43,0,0,0-2.66-1,15.1,15.1,0,0,0-2.46-.35,11.5,11.5,0,0,0-3.9.5,4,4,0,0,0-2.14,1.4,1.58,1.58,0,0,0,.19,1.88,5.93,5.93,0,0,0,3,1.76,17,17,0,0,0,2.34.82,18.6,18.6,0,0,1,2.34.82,37.24,37.24,0,0,1,13,7.34,24.13,24.13,0,0,1,6.59,9.52,119,119,0,0,0,3.45-11.86q1.24-5.45,1.69-7m-36.55,14a.27.27,0,0,1-.3.17c-.12,0-.15-.1-.07-.24a.27.27,0,0,1,.3-.17c.12,0,.15.1.07.24m.33,1.14c-.25,0-.39-.15-.44-.31s0-.28.25-.34.39.15.44.31,0,.27-.26.34M79,187.73c.26.51.05.8-.63.88a2.52,2.52,0,0,1-1.44-.12,3.22,3.22,0,0,1,1-1.08c.44-.3.79-.19,1.06.31m1.78-4.2c.25,0,1.23.41,2.94,1.09a21.57,21.57,0,0,1,5.57,3.5,27.7,27.7,0,0,1,5.54,6.49,21,21,0,0,1,3,9.85,16.93,16.93,0,0,0-1.89-8.76,25.81,25.81,0,0,0-10.68-10.64,12.18,12.18,0,0,0-4.47-1.53m16.82-11.12q-.6-3.34-5.36-4.61a19,19,0,0,0-10.71.61,24.29,24.29,0,0,1,3-.51,25,25,0,0,1,4.71-.12A14.21,14.21,0,0,1,94,168.94a7.08,7.08,0,0,1,3.54,3.47m-.91-6.24A2.49,2.49,0,0,0,95.11,165a9.16,9.16,0,0,0-2.65-.38,27.73,27.73,0,0,0-2.94.14,14.45,14.45,0,0,0-2.43.43q4.89-.7,7-.15a6.11,6.11,0,0,1,2.6,1.1M96,167.42c0-.71-.73-1.22-2.29-1.54a15,15,0,0,0-5.5.08,22.52,22.52,0,0,1,3.92.2A9.15,9.15,0,0,1,96,167.42m3,30.2a13.48,13.48,0,0,0-1.16-3.44,25.91,25.91,0,0,0-1.91-3.31,12.71,12.71,0,0,0-2.22-2.52,4.94,4.94,0,0,0-2.27-1.19,5.6,5.6,0,0,1,2.28,1.54,21.12,21.12,0,0,1,2.18,2.71,27.41,27.41,0,0,1,1.89,3.23,18.55,18.55,0,0,1,1.21,3m1.16,13.88a4.6,4.6,0,0,0,1.78-3.58,19.42,19.42,0,0,0-.27-4.92,26.89,26.89,0,0,0-1.21-4.57c-.51-1.37-.9-2.31-1.16-2.83q.62,1.58,1.31,3.66a24.19,24.19,0,0,1,1,4.37,16.74,16.74,0,0,1,0,4.38,6.6,6.6,0,0,1-1.46,3.49" transform="translate(0)"/><path class="cls-6" d="M144.33,165.35a4.62,4.62,0,0,1,1.53-2.63,2.76,2.76,0,0,1,2.14-.79,2.44,2.44,0,0,1,1.7,1.35,5.76,5.76,0,0,1,.21,3.8q-.56,3-1.53,7.55t-2.54,9.85a109.71,109.71,0,0,1-3.68,10.44,55.85,55.85,0,0,1-4.86,9.38,25.53,25.53,0,0,1-6,6.63,10.5,10.5,0,0,1-7.19,2.14q-9.32-.67-12.07-9.36t0-26q1.67-10.13,3.07-18.43t2.4-15.25a159.79,159.79,0,0,0,1.66-20.57q0-8.51-4.43-11.81a7.66,7.66,0,0,0,1.47.55,4.71,4.71,0,0,1,2.12,1.59,16.17,16.17,0,0,1-.38-1.65,5.81,5.81,0,0,0-.55-1.6c.5-.73,1.72-.93,3.69-.61a26.9,26.9,0,0,1,6.56,2.07,31.44,31.44,0,0,1,6.8,4.12,13.8,13.8,0,0,1,4.43,5.67,31.31,31.31,0,0,1,2.52,9.1,40.93,40.93,0,0,1-.41,12.67,70.57,70.57,0,0,1-4.78,15.49,78.86,78.86,0,0,1-10.63,17.43q-3.24,14.44-3.56,21.64t3.26,8.64q2.41,1.06,4.62-1.32a25.18,25.18,0,0,0,4.16-6.63,99.62,99.62,0,0,0,3.76-9.58q1.8-5.34,3.11-10.28t2.17-8.69q.85-3.75,1.23-4.92m-24.45,34.19q-.11,5.12,1.52,7.46a5.41,5.41,0,0,0,3.89,2.57,7.32,7.32,0,0,0,4.64-1.24,9,9,0,0,0,3.57-4.09,12.87,12.87,0,0,1-4.15,3.91,6.08,6.08,0,0,1-4.23.86,5.44,5.44,0,0,1-3.41-2.71,15.49,15.49,0,0,1-1.84-6.76m1.19-81.77c0,.58.43,2.42,1.15,5.55s.66,7.74-.17,13.83q.09-.91.33-3.43c.16-1.68.28-3.53.35-5.54a35,35,0,0,0-.28-5.89,11.81,11.81,0,0,0-1.38-4.52m12.7,12.51q-.37,1.16-1.19,4.12t-1.71,6.89q-.89,3.94-1.89,8.44t-1.9,8.7q-.9,4.2-1.56,7.73t-1,5.54q.27-1.48.78-4t1.26-5.71q.76-3.2,1.58-6.77t1.57-7.11q1.85-8.25,4-17.82m-6,36.81a55.92,55.92,0,0,0,6.5-16.25,51.14,51.14,0,0,0,1.28-15.46q-4.7,18.55-7.78,31.71m7.3-13.14a25.65,25.65,0,0,0,.89-2.71,29.53,29.53,0,0,0,.74-3.55q.27-1.83.44-3.37a6.36,6.36,0,0,0,0-2.19,16.08,16.08,0,0,1-.21,2.34q-.23,1.65-.58,3.5c-.23,1.24-.45,2.42-.66,3.52a16,16,0,0,1-.61,2.46" transform="translate(0)"/><path class="cls-6" d="M201,149.32a4.65,4.65,0,0,1,1.53-2.63,2.78,2.78,0,0,1,2.14-.79,2.42,2.42,0,0,1,1.7,1.36,5.74,5.74,0,0,1,.21,3.8q-.39,2.93-1.45,7.52t-2.64,9.79q-1.59,5.19-3.71,10.36a52.18,52.18,0,0,1-4.89,9.3,26.37,26.37,0,0,1-6,6.55,10.48,10.48,0,0,1-7.2,2.14,9.22,9.22,0,0,1-5.64-2.25,13.52,13.52,0,0,1-3.53-5.31,27,27,0,0,1-4.86,9.38q-3.36,4.21-9.94,5.74-5.6,1.26-8.7-2.51a22.29,22.29,0,0,1-4.28-10.36,69.42,69.42,0,0,1-.88-14.75A133.48,133.48,0,0,1,144.31,161a90.68,90.68,0,0,1,3-13.22q1.79-5.69,3.62-7.27,6.61-5.75,12.85-6.92t10.7.89a13.53,13.53,0,0,1,.29-1.75,13,13,0,0,1,.5-1.64q0-.53,2.87-1.34a32.44,32.44,0,0,1,6-1.1,15.85,15.85,0,0,1,5.54.34,2.05,2.05,0,0,1,1.63,3q-1.18,3.85-2.84,9.41t-3.18,11.61Q183.75,159,182.4,165t-2,10.92a38.55,38.55,0,0,0-.3,8.16q.32,3.25,2.05,3.8,2.32.75,4.55-1.56a26.44,26.44,0,0,0,4.27-6.23,64.78,64.78,0,0,0,3.72-8.78q1.68-4.86,3-9.38t2.11-8q.76-3.47,1.13-4.63m-48.48,44a55,55,0,0,1-.74-11.19q.16-6.19.87-12t1.63-10.55q.92-4.74,1.48-6.48a34.69,34.69,0,0,0-1.94,6.7q-1.07,4.87-1.81,10.87a98.42,98.42,0,0,0-.74,12.14,38.66,38.66,0,0,0,1.26,10.52m6.72,1.41q3.38.78,6.71-11.83t5.68-37.51c.06-.61-.32-1.11-1.14-1.52a6.88,6.88,0,0,0-3-.64,9.35,9.35,0,0,0-3.5.65,4.77,4.77,0,0,0-2.62,2.5,15.08,15.08,0,0,0-.75,2.58q-.53,2.17-1.23,5.53t-1.43,7.6q-.72,4.25-1.23,8.6.92-6.59,2.21-12.21a51.68,51.68,0,0,1,2.23-7.84c-.11.85-.42,2.43-.93,4.74s-1,5-1.55,8.08-1,6.34-1.41,9.79-.66,6.68-.74,9.69a38.89,38.89,0,0,0,.47,7.76q.58,3.26,2.2,4m11.94-3.06c.68.74.92,1.29.73,1.64s-.39.37-.59.08a11.47,11.47,0,0,1-2.87,5.3,22.89,22.89,0,0,1-4.46,3.73,20.13,20.13,0,0,1-4.39,2.13,7.07,7.07,0,0,1-2.83.55,22.4,22.4,0,0,0,6.15-2.72,20.93,20.93,0,0,0,4.24-3.58,18.75,18.75,0,0,0,2.62-3.73,19.31,19.31,0,0,0,1.4-3.38M163,196.33a8.85,8.85,0,0,0,2.29-3,35.19,35.19,0,0,0,2.09-5,39.48,39.48,0,0,0,1.48-5.86,30.29,30.29,0,0,0,.49-5.67,30.31,30.31,0,0,1-.71,4.59q-.64,3-1.6,6.07T165,193.14a7.84,7.84,0,0,1-2,3.2m8.95-.63q-.6.35-.63-.35a2.14,2.14,0,0,1,.21-1.11,2.16,2.16,0,0,1,.74.75c.22.35.11.59-.32.71m.07-1.6c-.17-.19-.18-.33,0-.43s.3-.06.47.12.14.2,0,.35-.28.14-.45,0" transform="translate(0)"/><path class="cls-6" d="M260.58,132.46a4.77,4.77,0,0,1,1.45-2.61,2.75,2.75,0,0,1,2.14-.79,2.18,2.18,0,0,1,1.7,1.36,6.83,6.83,0,0,1,.29,3.78c-.26,1.95-.78,4.55-1.54,7.81s-1.73,6.75-2.88,10.47-2.49,7.45-4,11.15a61.3,61.3,0,0,1-5.19,10.08,30.47,30.47,0,0,1-6.27,7.23,10.16,10.16,0,0,1-7.29,2.43c-.5-.09-1-.17-1.38-.22s-.88-.13-1.38-.22a12.49,12.49,0,0,0,5.22,1.67q-6.59.29-9.61-3.84a21.92,21.92,0,0,1-3.91-9.67,47.14,47.14,0,0,1-.45-11.1q.43-5.55.82-8.48a48.12,48.12,0,0,1,.63-4.83q.5-2.86,1.09-6t1.3-6.51q.7-3.37,1.42-6.37a11.22,11.22,0,0,0-3.22,2.85q1.95-1.78,2.46-1.23-1.57.63-4.19,3.75a54.65,54.65,0,0,0-5.21,7.54,115.74,115.74,0,0,0-7.8,19.69q-3.48,11.44-6.19,24.67a33.1,33.1,0,0,1-.83,4.45,2.74,2.74,0,0,1-3,.68,12.77,12.77,0,0,1-3.74-1.74,21,21,0,0,1-3.33-2.74,11.18,11.18,0,0,1-1.88-2.27q2.74-18.68,4.32-32.47t2.25-25.57a11.5,11.5,0,0,1,3.11-2.64,36.14,36.14,0,0,1,4.26-2.27,23.43,23.43,0,0,1,4.07-1.43,7.4,7.4,0,0,1,2.63-.31q-.53,3.66-1,7.83t-1.1,8.74a106.35,106.35,0,0,1,8.35-16.51q4.53-7.17,9.63-9a16.1,16.1,0,0,1,5.82,4.39,36.76,36.76,0,0,1,4.47,6.44,43.43,43.43,0,0,1,2.9,6.46q1,3,1.42,4.33-5.3,20.12-6.94,31.29t.48,11.8q2.48.7,4.81-1.9a30.48,30.48,0,0,0,4.44-6.89,88.62,88.62,0,0,0,4-9.65q1.88-5.36,3.3-10.25t2.3-8.55c.58-2.45,1-4.05,1.25-4.83m-51.38,43.12a79.91,79.91,0,0,1,1.81-7.8q1.37-5,3.13-10.54T218,146.75a32.51,32.51,0,0,1,4.28-7.72,21.49,21.49,0,0,0-4.39,7q-2.05,4.79-3.81,10.3t-3,10.77q-1.21,5.27-1.88,8.44m3.52-28.21a41.14,41.14,0,0,1,2-4.26q1.42-2.69,3.28-6t3.93-6.83q2.07-3.48,4.07-6.34c1.32-1.9,2.54-3.5,3.62-4.81a6.79,6.79,0,0,1,2.61-2.24q-1-.41-3.82,3.2a101,101,0,0,0-6,8.74q-3.19,5.13-6,10.4a54.65,54.65,0,0,0-3.72,8.17m19.16-35.49q-1.41-.65-3.75,2.21a66.23,66.23,0,0,0-4.86,6.92q-2.53,4.05-4.66,8.26t-3,6.2a38.39,38.39,0,0,0,2.24-4.15q1.72-3.47,4.07-7.57a66.33,66.33,0,0,1,5-7.58q2.69-3.48,4.91-4.3m10.28,72.17,1.62-.46c.54-.15.76,0,.67.51s-.43.65-1,.46a8.43,8.43,0,0,1-1.29-.51" transform="translate(0)"/><path class="cls-6" d="M314.31,69.37q1.06.05,1.64,1.46a6.87,6.87,0,0,1-.07,4.06q-4.42,15.83-8.4,29.86t-6.36,24.72a124,124,0,0,0-2.86,17.31q-.47,6.63,1.94,7.7,2.37.9,4.54-1.3a25.3,25.3,0,0,0,4.22-6.12,63.64,63.64,0,0,0,3.75-9q1.71-5,3-9.64t2.22-8.18c.6-2.39,1-4,1.11-4.7a4.62,4.62,0,0,1,1.53-2.63,2.78,2.78,0,0,1,2.14-.79,2.45,2.45,0,0,1,1.71,1.36,5.78,5.78,0,0,1,.21,3.8q-.39,2.92-1.45,7.53t-2.64,9.79Q319,139.8,316.88,145a55.07,55.07,0,0,1-4.8,9.27,24.89,24.89,0,0,1-6,6.55,10.71,10.71,0,0,1-7.27,2.17,8.68,8.68,0,0,1-5.75-2.31,15.2,15.2,0,0,1-3.52-5.57,22.43,22.43,0,0,1-3.95,9.82,17.3,17.3,0,0,1-6,5.06,16.83,16.83,0,0,1-6.27,1.7,17.65,17.65,0,0,1-4.72-.23c.57,0,1.21-.08,1.9-.1a9.55,9.55,0,0,0,2.34-.41,10.2,10.2,0,0,1-7.38-2.18,15.41,15.41,0,0,1-4.44-6.63,36.74,36.74,0,0,1-2-9.78,79,79,0,0,1-.06-11.56,111.23,111.23,0,0,1,1.42-11.9q1-5.91,2.37-11A25,25,0,0,1,268,107.26a22.55,22.55,0,0,1,8-6,19.37,19.37,0,0,1,8.75-1.63,14.26,14.26,0,0,1,7.43,2.35c.28-1.48.62-3.13,1-4.95s.81-3.6,1.19-5.34.73-3.28,1.06-4.6.53-2.22.62-2.72a11.27,11.27,0,0,1,2.3-4.87A16.57,16.57,0,0,1,302.35,76a20,20,0,0,1,4.64-2.2,40.86,40.86,0,0,1,4.41-1.17,2.87,2.87,0,0,0-1.17,1.74q-.29,1.14-.57,2.62a30.36,30.36,0,0,1,3.22-4.08,4.44,4.44,0,0,0,1.43-3.57m-27.73,37.41a4.16,4.16,0,0,0-3.93-1.16q-2.24.47-4.31,3.34a30,30,0,0,0-3.8,8.19,57,57,0,0,0-2.33,13q1.55-9.92,3.64-14.91a21.68,21.68,0,0,1,4.15-7c1.38-1.32,2.66-2,3.85-1.89a14.62,14.62,0,0,1,2.73.36m1.09,24.08c.14-.74.29-1.78.43-3.11s.28-2.71.39-4.15.24-2.76.36-4a14.18,14.18,0,0,1,.37-2.39,11.5,11.5,0,0,0-.21-5,6.44,6.44,0,0,0-2-3.37,3.54,3.54,0,0,0-3.18-.68q-1.81.43-3.48,3.19,1.41-1.81,2.54-1.86a2.3,2.3,0,0,1,1.59.33q-2.55-.32-4.44,3.2a37.85,37.85,0,0,0-3.18,8.81q-1.3,5.29-2.2,11.33T273,144q-.44,4-.62,7.64a36.08,36.08,0,0,0,.17,6.45,12.77,12.77,0,0,0,1.28,4.46,2.56,2.56,0,0,0,2.47,1.58q3.79-.21,6.46-8.08t4.91-25.18M286,105.37a4.77,4.77,0,0,0-1.43-1,4.18,4.18,0,0,0-2-.41,4.24,4.24,0,0,0-2,.56,3.38,3.38,0,0,0-1.39,1.89,6.54,6.54,0,0,1,2.89-1.87,3.65,3.65,0,0,1,3.84.83m16.52-5.42a18.7,18.7,0,0,0-1,3.45q-.69,2.82-1.47,6.83t-1.6,8.53q-.81,4.53-1.39,8.64t-.85,7.17a14.06,14.06,0,0,0,0,3.87,54.47,54.47,0,0,1,.55-6q.51-3.75,1.25-7.9l1.52-8.51q.77-4.35,1.46-7.79c.45-2.29.84-4.22,1.16-5.77a17.57,17.57,0,0,0,.43-2.49m.37-6.08a13.55,13.55,0,0,0-.84,2.26c-.33,1.09-.66,2.2-1,3.35a23.73,23.73,0,0,0-.67,3.18,5.76,5.76,0,0,0-.06,1.95c.12-.39.31-1.08.55-2.09s.49-2.07.75-3.2.51-2.22.73-3.28.39-1.78.52-2.17m-.78,16.9c.14-.74.53-2.52,1.19-5.34s1.33-5.79,2-8.91,1.31-6,1.87-8.52a24.75,24.75,0,0,0,.74-4.16,27.6,27.6,0,0,0-1.61,5.11q-1,4.07-2,8.83t-1.65,8.63a21,21,0,0,0-.51,4.35" transform="translate(0)"/><path class="cls-6" d="M36.34,120.26a43.76,43.76,0,0,1,10.47.43,12.54,12.54,0,0,1,6.52,2.95,6.21,6.21,0,0,1,1.85,5.44q-.44,4.06-1.08,11.24t-1.4,16q-.76,8.82-1.74,18.64t-1.87,19.19q-.89,9.37-1.78,17.49c-.59,5.41-.83,13.15-1.26,16.77-.76,1.09-2.47-1-4.64.29a15.2,15.2,0,0,1-7.77,1.86l.9-11.62q.21-3.85.54-10.35t.69-14.4q.36-7.9.7-16.67t.7-17.17q.36-8.41.56-15.89t.42-12.8Z" transform="translate(0)"/><path class="cls-6" d="M68.68,221.48a26,26,0,0,1-5.25,8.36A36.53,36.53,0,0,1,54.37,237a41.27,41.27,0,0,1-12.2,4.52,41.69,41.69,0,0,1-14.82.24q2.82,0,6.63-.3A49.46,49.46,0,0,0,42,240.13a50.27,50.27,0,0,0,8.63-3.07,37.81,37.81,0,0,0,8.47-5.38,50.43,50.43,0,0,1-7.94,4.48,57.63,57.63,0,0,1-9.1,3.25,60,60,0,0,1-9.63,1.73,39.55,39.55,0,0,1-9.57-.2,8.86,8.86,0,0,1-4.74-2.7,26.88,26.88,0,0,1-4-5.06,20.19,20.19,0,0,1-2.39-5.37q-.7-2.62.06-3.59a10.22,10.22,0,0,0,4.25,2.51,32.22,32.22,0,0,0,6.86,1.56,59.67,59.67,0,0,0,8.54.41c3.1-.06,18.43-2,26.41-6.32,7-3.78,10.82-.91,10.82-.91" transform="translate(0)"/><path class="cls-6" d="M50.12,231.3q-3.44.85-7.26,1.46a55.87,55.87,0,0,1-7.39.69,37.19,37.19,0,0,1-6.78-.41,19,19,0,0,1-5.41-1.58,10.63,10.63,0,0,0,5.25,2.23,34.37,34.37,0,0,0,7.64.55,50,50,0,0,0,7.94-.88,18.41,18.41,0,0,0,6-2.05" transform="translate(0)"/><path class="cls-6" d="M32.91,121.77q4.92-.09,9.67-.57t8.6-1.18q3.85-.71,6.43-1.39c1.73-.45,2.78-.76,3.17-.92a31.81,31.81,0,0,1-8.25,2.86,75.26,75.26,0,0,1-9,1.3A70.25,70.25,0,0,0,54,120.55a42.38,42.38,0,0,0,8-2.42A15.84,15.84,0,0,0,67,114.91a4.65,4.65,0,0,0,1.58-3.72q1.23,1.06.72,3.28T65.92,118a7.59,7.59,0,0,0,3-2.14,4.17,4.17,0,0,0,.92-2.4,5.93,5.93,0,0,0-.39-2.31,15.19,15.19,0,0,0-.86-1.88,7.66,7.66,0,0,1,3,2.34,10.74,10.74,0,0,1,2,3.84l-1.16-3.62a5.84,5.84,0,0,1,3.24,2.66A9,9,0,0,1,77,119.27a10.7,10.7,0,0,1-1.63,5.57A14.75,14.75,0,0,1,69.6,130a33.83,33.83,0,0,1-10.73,3.74,56.5,56.5,0,0,1-16.23.36,63.19,63.19,0,0,1-11.15-2" transform="translate(0)"/><path class="cls-6" d="M73.58,110.63a8.87,8.87,0,0,1,2.23,3.9,10.71,10.71,0,0,1,.27,5,12.16,12.16,0,0,0,.32-1.56,9.46,9.46,0,0,0,0-2.66,10.18,10.18,0,0,0-.76-2.83,3.32,3.32,0,0,0-2.08-1.86" transform="translate(0)"/><path class="cls-6" d="M75.22,118q-1.9,1.87-4.39,3.95t-5.3,4.16q-2.81,2.07-5.8,3.93a47.56,47.56,0,0,1-5.94,3.15A34.56,34.56,0,0,0,58,131.5a44.63,44.63,0,0,0,5.51-3.09,58.3,58.3,0,0,0,6-4.49A44.92,44.92,0,0,0,75.22,118" transform="translate(0)"/><path class="cls-6" d="M55.95,132.28q-4.92.09-9.67.58T37.67,134q-3.85.71-6.43,1.39t-3.17.92a32,32,0,0,1,8.25-2.86,74.67,74.67,0,0,1,9-1.3,69.87,69.87,0,0,0-10.43,1.31,42.62,42.62,0,0,0-8,2.42,15.84,15.84,0,0,0-5.06,3.22,4.64,4.64,0,0,0-1.58,3.71q-1.23-1.06-.72-3.28T22.94,136a7.55,7.55,0,0,0-3,2.14,4.17,4.17,0,0,0-.92,2.4,5.92,5.92,0,0,0,.4,2.31,15,15,0,0,0,.86,1.88,7.65,7.65,0,0,1-3-2.34,10.71,10.71,0,0,1-2-3.84l1.16,3.62a5.82,5.82,0,0,1-3.24-2.66,9,9,0,0,1-1.36-4.77,10.69,10.69,0,0,1,1.63-5.57A14.77,14.77,0,0,1,19.26,124,33.92,33.92,0,0,1,30,120.31a56.58,56.58,0,0,1,16.23-.36,63.16,63.16,0,0,1,11.15,2" transform="translate(0)"/><path class="cls-6" d="M21.75,131.82a43.87,43.87,0,0,1,3.57-3.6q2-1.89,4.32-3.79t4.72-3.59A37.57,37.57,0,0,1,39.21,118a26.19,26.19,0,0,0-3.4,1.51,34.77,34.77,0,0,0-4.49,2.82,48.21,48.21,0,0,0-4.88,4.1,39.18,39.18,0,0,0-4.68,5.42" transform="translate(0)"/><path class="cls-5" d="M363.87,6.36l2.82,1a3.88,3.88,0,0,1,1.76,1.26l17.33,21.89a3.89,3.89,0,0,1,.84,2.18l1.54,25.23a3.93,3.93,0,0,0,.32,1.33l33.66,76.51a3.88,3.88,0,0,1,.27,2.23l-7.52,43.92a3.81,3.81,0,0,1-.36,1.09l-10.09,21.87c-1.66,3,.19,7.91,2.24,10l16.23,18.11a3.91,3.91,0,0,1,.27,2L418.46,262a3.88,3.88,0,0,1-.49,1.48l-8.42,14.57a3.88,3.88,0,0,0-.38.91l-9.71,35.17a3.89,3.89,0,0,1-4,2.85l-1.53-.11a3.89,3.89,0,0,1-2.67-1.34l-.85-1a3.89,3.89,0,0,0-2.59-1.33l-5-.46a3.9,3.9,0,0,1-3.36-2.75l-21.93-72.14a3.89,3.89,0,0,1,1.49-4.32l4.51-3.16a3.89,3.89,0,0,0,1.43-1.9l1.48-4.2a3.9,3.9,0,0,0-.56-3.63l-5.18-6.9a3.89,3.89,0,0,0-4.95-1.1,3.89,3.89,0,0,1-5.7-3l-1.87-16.24a3.89,3.89,0,0,1,1.34-3.4l5.12-4.38a3.89,3.89,0,0,0,.73-5.08l-2-3.11a3.9,3.9,0,0,1-.36-3.55l3.6-9.14A3.9,3.9,0,0,0,355,160l-4.32-2.76a3.9,3.9,0,0,1-1.6-2.06l-3.28-9.93a3.9,3.9,0,0,1,2.24-4.83l11.55-4.68a3.89,3.89,0,0,0,2.36-4.35l-1.32-6.75a3.87,3.87,0,0,1,.06-1.75l2.68-10a3.89,3.89,0,0,0-2.09-4.52L356,105.86a3.9,3.9,0,0,1-1.93-2l-3.7-9.05a3.89,3.89,0,0,1,.41-3.7l3.44-4.93a3.9,3.9,0,0,0,.32-3.91l-5.8-12.11a3.89,3.89,0,0,0-2.22-2l-2.24-.79a3.89,3.89,0,0,1-2.5-2.79l-.61-2.63A3.89,3.89,0,0,1,342.51,58l10.69-8.76a3.9,3.9,0,0,1,3.47-.75l8.53,2.26a3.89,3.89,0,0,0,4.47-2l.45-.87a3.89,3.89,0,0,0-2.05-5.39l-9-3.53A3.9,3.9,0,0,1,356.64,36l-3.46-19.27a3.89,3.89,0,0,1,1-3.33l5.56-6a3.89,3.89,0,0,1,4.16-1m-22.46,151-5.54,2.17a3.89,3.89,0,0,0-2.26,4.91l1.32,3.77a3.89,3.89,0,0,0,5.51,2.15l4.65-2.48a3.89,3.89,0,0,0,2-3.92l-.43-3.45a3.89,3.89,0,0,0-5.28-3.14" transform="translate(0)"/></g></g></g></svg>